<?xml version="1.0" encoding="UTF-8" standalone="no"?>
<!-- Generator: Adobe Illustrator 23.0.3, SVG Export Plug-In . SVG Version: 6.00 Build 0)  -->

<svg
   version="1.1"
   id="Layer_1"
   x="0px"
   y="0px"
   viewBox="0 0 264 280"
   style="enable-background:new 0 0 264 280;"
   xml:space="preserve"
   sodipodi:docname="avatar.svg"
   inkscape:version="1.1 (c68e22c387, 2021-05-23)"
   xmlns:inkscape="http://www.inkscape.org/namespaces/inkscape"
   xmlns:sodipodi="http://sodipodi.sourceforge.net/DTD/sodipodi-0.dtd"
   xmlns="http://www.w3.org/2000/svg"
   xmlns:svg="http://www.w3.org/2000/svg"><defs
   id="defs181">
	

		
	
			
			
			<defs
   id="defs27">
				<filter
   id="Adobe_OpacityMaskFilter_1_"
   filterUnits="userSpaceOnUse"
   x="-1"
   y="0"
   width="265"
   height="280">
					<feColorMatrix
   type="matrix"
   values="1 0 0 0 0  0 1 0 0 0  0 0 1 0 0  0 0 0 1 0"
   id="feColorMatrix24" />
				</filter>
			</defs>
			<mask
   maskUnits="userSpaceOnUse"
   x="-1"
   y="0"
   width="265"
   height="280"
   id="mask-4_1_">
				<g
   class="st5"
   id="g30">
					<path
   id="path-3_1_"
   class="st2"
   d="m 12,160 c 0,66.3 53.7,120 120,120 66.3,0 120,-53.7 120,-120 h 12 V 0 H 0 v 160 z" />
				</g>
			</mask>
			
		<clipPath
   clipPathUnits="userSpaceOnUse"
   id="clipPath13315"><path
     d="m 1865.71,2328.96 c 22.88,-89.46 89.8,-262.46 24.88,-312.1 -114.68,-87.68 -314.25,-178.16 -391.66,-138.61 -61.73,31.54 -244.5,228.17 -182.57,281.84 39.42,34.16 185.58,100.77 339.26,160.97 104.97,41.12 193.33,73.41 210.09,7.9 m -731.99,-606.21 c -25.15,-83.21 -228.685,-164.37 -371.372,-186.27 -80.782,-12.39 -159.11,155.75 -207.735,234.26 -35.605,57.47 48.907,98.79 151.301,145.96 149.91,69.07 299.226,128.26 351.166,133 81.62,7.44 96.67,-260.59 76.64,-326.95 m 764.62,752.91 c -53.59,-8.75 -263.32,-94.33 -397.09,-157.94 -2.09,-1.02 -233.38,-110.5 -338.96,-155.45 -105.58,-44.95 -344.794,-135.81 -346.993,-136.62 -138.563,-52.34 -345.613,-144.2 -389.063,-176.77 -12.019,-9 1.496,-41.69 11.621,-62.12 4.583,-9.22 13.801,-15.3 24.094,-15.9 92.684,-5.31 108.797,-239.91 277.781,-267.61 83.274,-13.66 403.08,97.11 434.24,207.34 51.77,183.07 -74.6,333.27 21.34,374.12 95.94,40.85 116.66,-154.33 284.49,-243.91 101.05,-53.93 402.55,99.83 450.41,169.32 97.16,141.02 -60.79,315.23 -0.35,385.74 6.69,7.82 8.7,18.68 5.2,28.37 -7.68,21.47 -21.89,53.87 -36.72,51.43"
     id="path13313" /></clipPath><linearGradient
   x1="0"
   y1="0"
   x2="1"
   y2="0"
   gradientUnits="userSpaceOnUse"
   gradientTransform="matrix(196.521,-461.563,-461.563,-196.521,1143.05,2207.47)"
   spreadMethod="pad"
   id="linearGradient13325"><stop
     style="stop-opacity:1;stop-color:#100f0d"
     offset="0"
     id="stop13317" /><stop
     style="stop-opacity:1;stop-color:#333232"
     offset="0.370968"
     id="stop13319" /><stop
     style="stop-opacity:1;stop-color:#333232"
     offset="0.548387"
     id="stop13321" /><stop
     style="stop-opacity:1;stop-color:#100f0d"
     offset="1"
     id="stop13323" /></linearGradient></defs><sodipodi:namedview
   id="namedview179"
   pagecolor="#ffffff"
   bordercolor="#cccccc"
   borderopacity="1"
   inkscape:pageshadow="0"
   inkscape:pageopacity="1"
   inkscape:pagecheckerboard="0"
   showgrid="false"
   inkscape:zoom="2.1011173"
   inkscape:cx="84.478863"
   inkscape:cy="160.15289"
   inkscape:window-width="1920"
   inkscape:window-height="1017"
   inkscape:window-x="-8"
   inkscape:window-y="-8"
   inkscape:window-maximized="1"
   inkscape:current-layer="Avataaar" />
<style
   type="text/css"
   id="style2">
	.st0{fill-rule:evenodd;clip-rule:evenodd;fill:#E6E6E6;}
	.st1{filter:url(#Adobe_OpacityMaskFilter);}
	.st2{fill-rule:evenodd;clip-rule:evenodd;fill:#FFFFFF;}
	.st3{mask:url(#mask-2_1_);}
	.st4{fill-rule:evenodd;clip-rule:evenodd;fill:#2C3E50;}
	.st5{filter:url(#Adobe_OpacityMaskFilter_1_);}
	.st6{mask:url(#mask-4_1_);}
	.st7{fill-rule:evenodd;clip-rule:evenodd;fill:#D0C6AC;}
	.st8{filter:url(#Adobe_OpacityMaskFilter_2_);}
	.st9{mask:url(#mask-6_1_);}
	.st10{fill-rule:evenodd;clip-rule:evenodd;fill:#EDB98A;}
	.st11{filter:url(#Adobe_OpacityMaskFilter_3_);}
	.st12{mask:url(#mask-6_2_);fill-rule:evenodd;clip-rule:evenodd;fill-opacity:0.1;}
	.st13{filter:url(#Adobe_OpacityMaskFilter_4_);}
	.st14{mask:url(#react-mask-952_1_);}
	.st15{filter:url(#Adobe_OpacityMaskFilter_5_);}
	.st16{opacity:0.6;mask:url(#react-mask-952_2_);}
	.st17{fill-rule:evenodd;clip-rule:evenodd;fill-opacity:0.16;}
	.st18{fill-rule:evenodd;clip-rule:evenodd;fill-opacity:0.7;}
	.st19{filter:url(#Adobe_OpacityMaskFilter_6_);}
	.st20{mask:url(#react-mask-934_1_);fill-rule:evenodd;clip-rule:evenodd;fill:#FFFFFF;}
	.st21{filter:url(#Adobe_OpacityMaskFilter_7_);}
	.st22{mask:url(#react-mask-934_2_);}
	.st23{fill-rule:evenodd;clip-rule:evenodd;fill:#FF4F6D;}
	.st24{fill-rule:evenodd;clip-rule:evenodd;fill-opacity:0.6;}
	.st25{filter:url(#Adobe_OpacityMaskFilter_8_);}
	.st26{mask:url(#react-mask-925_1_);}
	.st27{fill-rule:evenodd;clip-rule:evenodd;fill:#28354B;}
	.st28{filter:url(#Adobe_OpacityMaskFilter_9_);}
	.st29{mask:url(#react-mask-924_1_);}
	.st30{fill-rule:evenodd;clip-rule:evenodd;fill:#4A312C;}
</style>
<desc
   id="desc4">Created with getavataaars.com</desc>
<g
   id="Circle"
   transform="translate(12,40)">
				<g
   id="Circle-Background">
					<circle
   class="st0"
   cx="120"
   cy="120"
   r="120"
   id="circle6" />
				</g>
				<defs
   id="defs12">
					<filter
   id="Adobe_OpacityMaskFilter"
   filterUnits="userSpaceOnUse"
   x="0"
   y="0"
   width="240"
   height="240">
						<feColorMatrix
   type="matrix"
   values="1 0 0 0 0  0 1 0 0 0  0 0 1 0 0  0 0 0 1 0"
   id="feColorMatrix9" />
					</filter>
				</defs>
				<mask
   maskUnits="userSpaceOnUse"
   x="0"
   y="0"
   width="240"
   height="240"
   id="mask-2_1_">
					<g
   class="st1"
   id="g15">
						<circle
   id="path-1_1_"
   class="st2"
   cx="120"
   cy="120"
   r="120" />
					</g>
				</mask>
				<g
   class="st3"
   mask="url(#mask-2_1_)"
   id="g20">
					<rect
   class="st4"
   width="240"
   height="240"
   id="rect18"
   x="0"
   y="0" />
				</g>
			</g><g
   id="Mask">
			</g><g
   id="Avataaar"
   class="st6"
   mask="url(#mask-4_1_)">
				<g
   id="Body"
   transform="translate(32,36)">
					<g
   id="g35">
						<path
   class="st7"
   d="M 124,144.6 V 163 h 4 v 0 c 39.8,0 72,32.2 72,72 v 9 H 0 v -9 c 0,-39.8 32.2,-72 72,-72 v 0 h 4 V 144.6 C 58.8,136.4 46.4,119.7 44.3,99.9 38.5,99.1 34,94.1 34,88 V 74 C 34,68.1 38.3,63.1 44,62.2 V 56 56 C 44,25.1 69.1,0 100,0 v 0 0 c 30.9,0 56,25.1 56,56 v 6.2 c 5.7,1 10,5.9 10,11.8 v 14 c 0,6.1 -4.5,11.1 -10.3,11.9 -2.1,19.8 -14.5,36.5 -31.7,44.7 z"
   id="path33" />
					</g>
					<defs
   id="defs40">
						<filter
   id="Adobe_OpacityMaskFilter_2_"
   filterUnits="userSpaceOnUse"
   x="-32"
   y="0"
   width="264"
   height="244">
							<feColorMatrix
   type="matrix"
   values="1 0 0 0 0  0 1 0 0 0  0 0 1 0 0  0 0 0 1 0"
   id="feColorMatrix37" />
						</filter>
					</defs>
					<mask
   maskUnits="userSpaceOnUse"
   x="-32"
   y="0"
   width="264"
   height="244"
   id="mask-6_1_">
						<g
   class="st8"
   id="g43">
							<path
   id="path-5_1_"
   class="st2"
   d="M 124,144.6 V 163 h 4 v 0 c 39.8,0 72,32.2 72,72 v 9 H 0 v -9 c 0,-39.8 32.2,-72 72,-72 v 0 h 4 V 144.6 C 58.8,136.4 46.4,119.7 44.3,99.9 38.5,99.1 34,94.1 34,88 V 74 C 34,68.1 38.3,63.1 44,62.2 V 56 56 C 44,25.1 69.1,0 100,0 v 0 0 c 30.9,0 56,25.1 56,56 v 6.2 c 5.7,1 10,5.9 10,11.8 v 14 c 0,6.1 -4.5,11.1 -10.3,11.9 -2.1,19.8 -14.5,36.5 -31.7,44.7 z" />
						</g>
					</mask>
					<g
   class="st9"
   mask="url(#mask-6_1_)"
   id="g49">
						<g
   id="Color"
   transform="translate(-32)">
							<rect
   class="st10"
   width="264"
   height="244"
   id="rect46"
   x="0"
   y="0" />
						</g>
					</g>
					<defs
   id="defs54">
						<filter
   id="Adobe_OpacityMaskFilter_3_"
   filterUnits="userSpaceOnUse"
   x="44"
   y="79"
   width="112"
   height="79">
							<feColorMatrix
   type="matrix"
   values="1 0 0 0 0  0 1 0 0 0  0 0 1 0 0  0 0 0 1 0"
   id="feColorMatrix51" />
						</filter>
					</defs>
					<mask
   maskUnits="userSpaceOnUse"
   x="44"
   y="79"
   width="112"
   height="79"
   id="mask-6_2_">
						<g
   class="st11"
   id="g57">
							<path
   id="path-5_2_"
   class="st2"
   d="M 124,144.6 V 163 h 4 v 0 c 39.8,0 72,32.2 72,72 v 9 H 0 v -9 c 0,-39.8 32.2,-72 72,-72 v 0 h 4 V 144.6 C 58.8,136.4 46.4,119.7 44.3,99.9 38.5,99.1 34,94.1 34,88 V 74 C 34,68.1 38.3,63.1 44,62.2 V 56 56 C 44,25.1 69.1,0 100,0 v 0 0 c 30.9,0 56,25.1 56,56 v 6.2 c 5.7,1 10,5.9 10,11.8 v 14 c 0,6.1 -4.5,11.1 -10.3,11.9 -2.1,19.8 -14.5,36.5 -31.7,44.7 z" />
						</g>
					</mask>
					<path
   id="Neck-Shadow"
   class="st12"
   d="m 156,79 v 23 c 0,30.9 -25.1,56 -56,56 -30.9,0 -56,-25.1 -56,-56 V 79 94 c 0,30.9 25.1,56 56,56 30.9,0 56,-25.1 56,-56 z"
   mask="url(#mask-6_2_)" />
				</g>
				<g
   transform="translate(0,170)"
   id="g92">
					<g
   id="Clothes">
						<path
   class="st0"
   d="m 166,29.3 c 37,3 66,34 66,71.8 V 110 H 32 v -8.9 C 32,63 61.6,31.8 99,29.2 c 0,0.4 0,0.7 0,1.1 0,11.9 15,21.5 33.5,21.5 18.5,0 33.5,-9.6 33.5,-21.5 0,-0.3 0,-0.7 0,-1 z"
   id="path62" />
					</g>
					<defs
   id="defs68">
						<filter
   id="Adobe_OpacityMaskFilter_4_"
   filterUnits="userSpaceOnUse"
   x="0"
   y="0"
   width="264"
   height="110">
							<feColorMatrix
   type="matrix"
   values="1 0 0 0 0  0 1 0 0 0  0 0 1 0 0  0 0 0 1 0"
   id="feColorMatrix65" />
						</filter>
					</defs>
					<mask
   maskUnits="userSpaceOnUse"
   x="0"
   y="0"
   width="264"
   height="110"
   id="react-mask-952_1_">
						<g
   class="st13"
   id="g71">
							<path
   id="react-path-951_1_"
   class="st2"
   d="m 166,29.3 c 37,3 66,34 66,71.8 V 110 H 32 v -8.9 C 32,63 61.6,31.8 99,29.2 c 0,0.4 0,0.7 0,1.1 0,11.9 15,21.5 33.5,21.5 18.5,0 33.5,-9.6 33.5,-21.5 0,-0.3 0,-0.7 0,-1 z" />
						</g>
					</mask>
					<g
   class="st14"
   mask="url(#react-mask-952_1_)"
   id="g76">
						<rect
   class="st2"
   width="264"
   height="110"
   id="rect74"
   x="0"
   y="0" />
					</g>
					<defs
   id="defs81">
						<filter
   id="Adobe_OpacityMaskFilter_5_"
   filterUnits="userSpaceOnUse"
   x="92.900002"
   y="4.9000001"
   width="79.300003"
   height="53.799999">
							<feColorMatrix
   type="matrix"
   values="1 0 0 0 0  0 1 0 0 0  0 0 1 0 0  0 0 0 1 0"
   id="feColorMatrix78" />
						</filter>
					</defs>
					<mask
   maskUnits="userSpaceOnUse"
   x="92.9"
   y="4.9"
   width="79.3"
   height="53.8"
   id="react-mask-952_2_">
						<g
   class="st15"
   id="g84">
							<path
   id="react-path-951_2_"
   class="st2"
   d="m 166,29.3 c 37,3 66,34 66,71.8 V 110 H 32 v -8.9 C 32,63 61.6,31.8 99,29.2 c 0,0.4 0,0.7 0,1.1 0,11.9 15,21.5 33.5,21.5 18.5,0 33.5,-9.6 33.5,-21.5 0,-0.3 0,-0.7 0,-1 z" />
						</g>
					</mask>
					<g
   id="Shadowy"
   class="st16"
   mask="url(#react-mask-952_2_)">
						<g
   transform="translate(92,4)"
   id="g89">
							<ellipse
   class="st17"
   cx="40.5"
   cy="27.799999"
   rx="39.599998"
   ry="26.9"
   id="ellipse87" />
						</g>
					</g>
				</g>
				<g
   id="Face"
   transform="translate(76,82)">
					<g
   transform="translate(2,52)"
   id="g123">
						<g
   id="Mouth">
							<path
   class="st18"
   d="M 35.1,15.1 C 36.2,24.6 44.2,32 54,32 c 9.8,0 17.9,-7.4 18.9,-17 0.1,-0.8 -0.8,-2 -1.8,-2 -14.9,0 -26.3,0 -34,0 -1.1,0 -2.1,1.2 -2,2.1 z"
   id="path94" />
						</g>
						<defs
   id="defs100">
							<filter
   id="Adobe_OpacityMaskFilter_6_"
   filterUnits="userSpaceOnUse"
   x="39"
   y="2"
   width="31"
   height="16">
								<feColorMatrix
   type="matrix"
   values="1 0 0 0 0  0 1 0 0 0  0 0 1 0 0  0 0 0 1 0"
   id="feColorMatrix97" />
							</filter>
						</defs>
						<mask
   maskUnits="userSpaceOnUse"
   x="39"
   y="2"
   width="31"
   height="16"
   id="react-mask-934_1_">
							<g
   class="st19"
   id="g103">
								<path
   id="react-path-933_1_"
   class="st2"
   d="M 35.1,15.1 C 36.2,24.6 44.2,32 54,32 c 9.8,0 17.9,-7.4 18.9,-17 0.1,-0.8 -0.8,-2 -1.8,-2 -14.9,0 -26.3,0 -34,0 -1.1,0 -2.1,1.2 -2,2.1 z" />
							</g>
						</mask>
						<path
   id="Teeth"
   class="st20"
   d="m 44,2 h 21 c 2.8,0 5,2.2 5,5 v 6 c 0,2.8 -2.2,5 -5,5 H 44 c -2.8,0 -5,-2.2 -5,-5 V 7 c 0,-2.8 2.2,-5 5,-5 z"
   mask="url(#react-mask-934_1_)" />
						<defs
   id="defs110">
							<filter
   id="Adobe_OpacityMaskFilter_7_"
   filterUnits="userSpaceOnUse"
   x="38"
   y="24"
   width="32"
   height="22">
								<feColorMatrix
   type="matrix"
   values="1 0 0 0 0  0 1 0 0 0  0 0 1 0 0  0 0 0 1 0"
   id="feColorMatrix107" />
							</filter>
						</defs>
						<mask
   maskUnits="userSpaceOnUse"
   x="38"
   y="24"
   width="32"
   height="22"
   id="react-mask-934_2_">
							<g
   class="st21"
   id="g113">
								<path
   id="react-path-933_2_"
   class="st2"
   d="M 35.1,15.1 C 36.2,24.6 44.2,32 54,32 c 9.8,0 17.9,-7.4 18.9,-17 0.1,-0.8 -0.8,-2 -1.8,-2 -14.9,0 -26.3,0 -34,0 -1.1,0 -2.1,1.2 -2,2.1 z" />
							</g>
						</mask>
						<g
   id="Tongue"
   class="st22"
   mask="url(#react-mask-934_2_)">
							<g
   transform="translate(38,24)"
   id="g120">
								<circle
   class="st23"
   cx="11"
   cy="11"
   r="11"
   id="circle116" />
								<circle
   class="st23"
   cx="21"
   cy="11"
   r="11"
   id="circle118" />
							</g>
						</g>
					</g>
					<g
   transform="translate(28,40)"
   id="g126">
						<path
   id="Nose"
   class="st17"
   d="m 16,8 c 0,4.4 5.4,8 12,8 v 0 c 6.6,0 12,-3.6 12,-8" />
					</g>
					<g
   transform="translate(0,8)"
   id="g131">
						<path
   id="Squint"
   class="st24"
   d="M 16.2,22.4 C 18,18.6 22.2,16 27,16 c 4.8,0 9,2.6 10.8,6.4 0.6,1.1 -0.2,2 -1,1.4 -2.5,-2.1 -5.9,-3.4 -9.8,-3.4 -3.7,0 -7.1,1.2 -9.6,3.2 -0.9,0.7 -1.8,0 -1.2,-1.2 z" />
						<path
   class="st24"
   d="M 74.2,22.4 C 76,18.6 80.2,16 85,16 c 4.8,0 9,2.6 10.8,6.4 0.6,1.1 -0.2,2 -1,1.4 -2.5,-2.1 -5.9,-3.4 -9.8,-3.4 -3.7,0 -7.1,1.2 -9.6,3.2 -0.9,0.7 -1.8,0 -1.2,-1.2 z"
   id="path129" />
					</g>
					<g
   id="g136">
						<path
   id="Eyebrow"
   class="st24"
   d="m 26.5,6.1 c -5.8,0.3 -15.2,4.5 -15,10.3 0,0.2 0.3,0.3 0.4,0.1 2.8,-3 22.3,-5.9 29.2,-4.4 0.6,0.1 1.1,-0.5 0.7,-0.9 C 38.5,7.5 31.7,5.9 26.5,6.1" />
						<path
   class="st24"
   d="m 86.5,6.1 c 5.8,0.3 15.2,4.5 15,10.3 0,0.2 -0.3,0.3 -0.4,0.1 -2.8,-3 -22.3,-5.9 -29.2,-4.4 -0.6,0.1 -1.1,-0.5 -0.7,-0.9 3.3,-3.7 10.1,-5.3 15.3,-5.1"
   id="path134" />
					</g>
				</g>
				
			<path
   style="fill:#241f1c;stroke:#000000;stroke-width:1px;stroke-linecap:butt;stroke-linejoin:miter;stroke-opacity:0"
   d="m 187.90872,118.87505 c 0,0 0.78175,2.32937 1.05708,4.53198 0.27532,2.2026 0.39769,4.37462 0.39769,4.37462 L 189.7,133.9 c 0,0 0.22997,1.53769 0.0538,2.95616 -0.17617,1.41846 -0.54327,2.94805 -0.54327,2.94805 l -1.1319,4.34403 -1.59077,5.04764 -1.22367,3.30391 -3.15095,6.42428 c 0,0 -2.87563,4.61935 -3.97693,5.72066 -1.1013,1.1013 -2.08979,2.41586 -3.08977,3.05917 l -0.99998,0.64331 -0.9273,1.83462 c 0,0 -1.8661,2.90622 -2.50852,3.67102 -0.64243,0.76479 -4.89469,5.23119 -4.89469,5.23119 0,0 -5.69006,5.17001 -7.0361,6.17953 -1.34604,1.00953 -7.04683,5.30443 -7.04683,5.30443 0,0 -0.50934,0.44683 -1.05999,1.05866 -0.55065,0.61184 -3.42628,3.02859 -5.41474,3.94634 -1.98847,0.91775 -6.57723,2.69207 -9.33049,2.69207 h -4.98646 c -1.1013,0 -4.25225,0.0918 -5.90421,-0.18355 -1.65195,-0.27532 -5.17001,-1.07071 -7.28084,-2.2026 -2.11083,-1.1319 -4.37462,-2.50853 -5.29237,-3.51806 -0.91776,-1.00952 -1.80123,-1.79286 -1.80123,-1.79286 0,0 -2.35925,-1.96992 -3.58292,-2.76531 -1.22367,-0.79538 -5.47593,-4.03811 -6.63842,-5.13942 -1.16248,-1.1013 -3.08976,-2.6003 -4.49699,-4.12988 -1.40722,-1.52959 -4.95586,-5.38415 -5.65947,-6.45487 -0.70361,-1.07071 -2.03754,-3.72939 -2.03754,-3.72939 0,0 -3.98904,-3.12316 -5.39626,-5.60109 l -1.40722,-2.47794 c 0,0 -2.29438,-4.92527 -3.02859,-7.00551 -0.7342,-2.08024 -1.98846,-6.48546 -2.50852,-8.38214 -0.52006,-1.89669 -1.33544,-3.6015 -1.29485,-5.51765 0.0406,-1.91615 -0.0818,-5.80131 -0.0818,-6.81084 0,-1.00952 0.45888,-9.2693 0.94835,-10.21765 0.48946,-0.94834 2.28456,-1.65547 2.28456,-1.65547 0,0 0.49929,0.4318 0.34633,1.34956 l -0.15296,0.91775 c 0,0 -0.39769,1.04012 -0.52006,2.01906 -0.12237,0.97893 0.70361,4.00752 1.4684,5.65947 0.7648,1.65196 1.43295,2.65819 2.96497,5.07659 1.53202,2.4184 1.77676,2.99964 3.12279,4.40686 1.34604,1.40722 4.8335,3.91575 6.05717,5.13942 1.22367,1.22367 2.44734,2.81444 3.67101,2.81444 1.22367,0 6.80819,-1.27185 6.80819,-1.27185 0,0 4.75934,-1.99359 5.00408,-2.11596 0,0 1.87559,-1.21223 2.67097,-0.72276 0.79539,0.48947 0.49325,1.01334 0.12615,1.56399 -0.3671,0.55065 -0.46838,2.67673 -0.59074,3.34975 -0.12237,0.67302 -0.79539,2.93681 -0.97894,3.60983 -0.18355,0.67302 -0.32048,5.2637 -0.32048,5.2637 0,0 -0.0542,2.80474 0.25168,4.39551 0.30592,1.59077 2.32498,8.56569 3.7322,10.34002 1.40722,1.77432 6.24072,7.64794 7.52557,8.56569 1.28486,0.91775 3.22331,2.45085 4.52758,2.56971 1.30427,0.11886 5.07824,-0.12237 5.50652,-1.04012 0.42828,-0.91775 0.18355,-2.63089 0.0612,-4.4664 -0.12236,-1.8355 -0.87269,-5.04467 -0.87269,-5.04467 l 2.267,-0.1022 2.21552,0.25219 c 0,0 0.67302,1.77432 0.42829,2.32497 -0.24474,0.55066 -0.67302,2.20261 -0.61184,3.12036 0.0612,0.91776 2.12441,3.99475 2.12441,3.99475 0,0 0.93477,0.89994 2.64791,0.22692 1.71314,-0.67302 7.09729,-3.48746 9.36108,-5.13942 2.26379,-1.65195 4.61918,-2.55489 7.23486,-5.19319 2.61568,-2.6383 3.01329,-7.36477 3.56394,-10.2404 0.55065,-2.87563 1.10898,-6.98253 1.29253,-9.06277 0.18355,-2.08024 -0.17594,-7.22727 -0.35947,-8.20621 -0.18355,-0.97893 0.42829,-1.65195 0.7342,-1.52958 0.30592,0.12236 1.52959,1.04012 2.87563,1.95787 1.34604,0.91775 2.37842,1.78577 3.17381,2.09169 0.79538,0.30591 2.59283,1.36515 4.67307,0.4474 2.08024,-0.91776 3.64435,-1.6329 4.25618,-2.48947 0.61184,-0.85657 1.67863,-1.79338 3.2694,-3.75125 1.59077,-1.95788 3.97693,-5.32297 5.32297,-7.52558 1.34603,-2.20261 2.2026,-5.75125 3.36509,-8.81043 1.16249,-3.05917 2.0021,-6.55103 2.0021,-6.55103"
   id="path3819"
   sodipodi:nodetypes="csccscccccssccscscssssssscsssscscssssscscsssssscsssssccssssscccsscssssssssssssssc" /><g
   id="g13309"
   transform="matrix(0.06565086,0.02855586,0.02855586,-0.06565086,-7.645452,205.1324)"><g
     id="g13311"
     clip-path="url(#clipPath13315)"><path
       d="m 1865.71,2328.96 c 22.88,-89.46 89.8,-262.46 24.88,-312.1 -114.68,-87.68 -314.25,-178.16 -391.66,-138.61 -61.73,31.54 -244.5,228.17 -182.57,281.84 39.42,34.16 185.58,100.77 339.26,160.97 104.97,41.12 193.33,73.41 210.09,7.9 m -731.99,-606.21 c -25.15,-83.21 -228.685,-164.37 -371.372,-186.27 -80.782,-12.39 -159.11,155.75 -207.735,234.26 -35.605,57.47 48.907,98.79 151.301,145.96 149.91,69.07 299.226,128.26 351.166,133 81.62,7.44 96.67,-260.59 76.64,-326.95 m 764.62,752.91 c -53.59,-8.75 -263.32,-94.33 -397.09,-157.94 -2.09,-1.02 -233.38,-110.5 -338.96,-155.45 -105.58,-44.95 -344.794,-135.81 -346.993,-136.62 -138.563,-52.34 -345.613,-144.2 -389.063,-176.77 -12.019,-9 1.496,-41.69 11.621,-62.12 4.583,-9.22 13.801,-15.3 24.094,-15.9 92.684,-5.31 108.797,-239.91 277.781,-267.61 83.274,-13.66 403.08,97.11 434.24,207.34 51.77,183.07 -74.6,333.27 21.34,374.12 95.94,40.85 116.66,-154.33 284.49,-243.91 101.05,-53.93 402.55,99.83 450.41,169.32 97.16,141.02 -60.79,315.23 -0.35,385.74 6.69,7.82 8.7,18.68 5.2,28.37 -7.68,21.47 -21.89,53.87 -36.72,51.43"
       style="fill:url(#linearGradient13325);fill-opacity:1;fill-rule:nonzero;stroke:none"
       id="path13327" /></g></g><path
   d="m 186.5569,72.945017 c 0,0 2.06231,-5.192575 -0.3106,-10.5457 0.0891,-5.237046 -1.4583,-15.132379 -4.86481,-20.460566 -3.96985,-6.199675 -5.05053,-3.903437 -5.5325,-11.252246 -0.48057,-7.348807 -12.62631,-9.53246 -12.62631,-9.53246 -3.9725,-3.214397 -7.94057,-2.521415 -7.94057,-2.521415 -3.48258,-3.220027 -9.37995,-1.958473 -9.37995,-1.958473 -7.93439,-4.59079 -15.51264,-0.225161 -15.51264,-0.225161 C 105.01249,13.919699 92.98569,31.721152 92.98569,31.721152 81.19818,38.495424 81.68095,55.03116 81.68095,55.03116 c -12.266465,6.43065 -7.69826,17.913875 -7.69826,17.913875 -4.568556,8.957918 1.20182,35.369745 1.20182,35.369745 -0.7973,3.37371 1.97033,15.91852 2.26306,17.22674 -0.4082,-2.13523 0.8654,-15.50504 0.8654,-15.50504 -3.00944,-9.53247 -0.35963,-26.184677 -0.35963,-26.184677 -1.44502,-7.348814 4.68796,-17.22095 6.974,-20.099496 2.28426,-2.876632 4.81263,-3.668691 12.86905,-2.063181 8.05821,1.608887 10.58301,3.218338 20.44581,5.743581 9.86175,2.529301 19.32835,-0.201872 24.53523,-3.445203 5.88889,-3.672631 16.0536,-5.813443 21.54073,-5.04846 2.60883,0.370742 7.05711,1.344867 10.35025,3.775086 0.36613,0.269802 1.21952,1.244101 1.52551,1.630279 2.28605,2.874943 6.53092,12.034451 6.39296,19.507502 -0.11831,6.547127 2.64951,16.652209 -0.36043,26.184689 0,0 1.27169,13.36991 0.86621,15.50503 0.29152,-1.30827 3.05986,-13.85321 2.26128,-17.22674 0,0 5.77039,-26.411821 1.20184,-35.369747"
   style="fill:#241f1c;fill-opacity:1;fill-rule:nonzero;stroke:none;stroke-width:0.198643"
   id="path135729" /><path
   style="fill:#ffffff;stroke:#ffffff;stroke-width:0.744228px;stroke-linecap:butt;stroke-linejoin:miter;stroke-opacity:1"
   d="m 123.7901,67.987577 c 0,0 1.7331,-4.112404 0.9902,-6.711075 -0.7429,-2.59867 -1.11677,-5.844611 -0.73702,-6.851129 0.37975,-1.006517 1.78178,-5.953782 3.05952,-6.517632 1.27774,-0.56385 3.61894,-0.640405 3.61894,-0.640405 0,0 -1.20722,0.871066 -1.53865,1.132531 -0.33143,0.261466 -1.23051,0.607913 -1.56296,1.614656 -0.33245,1.006742 -0.45063,0.96234 -0.59427,2.233019 -0.14365,1.27068 -0.21519,1.708741 -0.12181,2.585986 0.0934,0.877246 0.0928,1.271803 0.44602,2.369484 0.35319,1.09768 0.40067,0.966385 0.54031,2.589131 0.13964,1.622747 0.13928,1.885785 0.13855,2.411862 -5.4e-4,0.526078 -7.9e-4,0.964476 -0.12066,1.753031 -0.11933,0.788553 -0.42874,2.233806 -0.47647,2.540461 -0.0477,0.306653 -0.45135,1.488417 -0.45135,1.488417 l -1.96284,0.07835 z"
   id="path188213" /></g>
</svg>
